# xmcd
#
# Track frame offsets: 
#        150
#        12927
#        29572
#        44215
#        59417
#        73482
#        92005
#        104035
#        118540
#        132742
#        144695
#        160740
#        175610
#        189735
#
# Disc length: 2701 seconds
#
# Revision: 4
# Processed by: cddbd v1.5.2PL0 Copyright (c) Steve Scherf et al.
# Submitted via: ExactAudioCopy v1.3
#
DISCID=db0a8b0e
DTITLE=Various Artist - MCA Records 30 Years Of Hits 1975-1988 Disc 2
DYEAR=1988
DGENRE=Country
TTITLE0=Tanya Tucker - San Antonio Stroll
TTITLE1=Olivia Newton-John - Come On Over
TTITLE2=Merle Haggard - If We're Not Back In Love By Monday
TTITLE3=John Conlee - Rose Colored Glasses
TTITLE4=Barbara Mandrell - (If Loving You Is Wrong) I Don't Want To Be
TTITLE4=Right
TTITLE5=Don Williams - I Believe In You
TTITLE6=Oak Ridge Boys - Elvira
TTITLE7=Gene Watson - This Dream's On Me
TTITLE8=Lee Greenwood - I.O.U.
TTITLE9=John Schneider - I've Been Around Enough To Know
TTITLE10=Reba McEntire - Somebody Should Leave
TTITLE11=Steve Wariner - Life's Highway
TTITLE12=George Strait - Ocean Front Property
TTITLE13=Waylon Jennings - If Ole Hank Could Only See Us Now
EXTD=
EXTT0=
EXTT1=
EXTT2=
EXTT3=
EXTT4=
EXTT5=
EXTT6=
EXTT7=
EXTT8=
EXTT9=
EXTT10=
EXTT11=
EXTT12=
EXTT13=
PLAYORDER=
